<svg id="visual" viewBox="0 0 960 540" width="960" height="540" xmlns="http://www.w3.org/2000/svg" xmlns:xlink="http://www.w3.org/1999/xlink" version="1.1"><path d="M0 153L22.8 151.2C45.7 149.3 91.3 145.7 137 145.5C182.7 145.3 228.3 148.7 274 147.8C319.7 147 365.3 142 411.2 139.7C457 137.3 503 137.7 548.8 151C594.7 164.3 640.3 190.7 686 194.3C731.7 198 777.3 179 823 165.5C868.7 152 914.3 144 937.2 140L960 136L960 0L937.2 0C914.3 0 868.7 0 823 0C777.3 0 731.7 0 686 0C640.3 0 594.7 0 548.8 0C503 0 457 0 411.2 0C365.3 0 319.7 0 274 0C228.3 0 182.7 0 137 0C91.3 0 45.7 0 22.8 0L0 0Z" fill="#009473"></path><path d="M0 140L22.8 146.3C45.7 152.7 91.3 165.3 137 159.8C182.7 154.3 228.3 130.7 274 127C319.7 123.3 365.3 139.7 411.2 139.5C457 139.3 503 122.7 548.8 125.8C594.7 129 640.3 152 686 163.8C731.7 175.7 777.3 176.3 823 168.5C868.7 160.7 914.3 144.3 937.2 136.2L960 128L960 0L937.2 0C914.3 0 868.7 0 823 0C777.3 0 731.7 0 686 0C640.3 0 594.7 0 548.8 0C503 0 457 0 411.2 0C365.3 0 319.7 0 274 0C228.3 0 182.7 0 137 0C91.3 0 45.7 0 22.8 0L0 0Z" fill="#00a26b"></path><path d="M0 133L22.8 135C45.7 137 91.3 141 137 137.3C182.7 133.7 228.3 122.3 274 116.2C319.7 110 365.3 109 411.2 105.2C457 101.3 503 94.7 548.8 91.5C594.7 88.3 640.3 88.7 686 97.3C731.7 106 777.3 123 823 122.7C868.7 122.3 914.3 104.7 937.2 95.8L960 87L960 0L937.2 0C914.3 0 868.7 0 823 0C777.3 0 731.7 0 686 0C640.3 0 594.7 0 548.8 0C503 0 457 0 411.2 0C365.3 0 319.7 0 274 0C228.3 0 182.7 0 137 0C91.3 0 45.7 0 22.8 0L0 0Z" fill="#00af5d"></path><path d="M0 55L22.8 61.5C45.7 68 91.3 81 137 84.7C182.7 88.3 228.3 82.7 274 78.2C319.7 73.7 365.3 70.3 411.2 68C457 65.7 503 64.3 548.8 63C594.7 61.7 640.3 60.3 686 60.3C731.7 60.3 777.3 61.7 823 62.7C868.7 63.7 914.3 64.3 937.2 64.7L960 65L960 0L937.2 0C914.3 0 868.7 0 823 0C777.3 0 731.7 0 686 0C640.3 0 594.7 0 548.8 0C503 0 457 0 411.2 0C365.3 0 319.7 0 274 0C228.3 0 182.7 0 137 0C91.3 0 45.7 0 22.8 0L0 0Z" fill="#19bb48"></path><path d="M0 47L22.8 49.8C45.7 52.7 91.3 58.3 137 59.3C182.7 60.3 228.3 56.7 274 56.5C319.7 56.3 365.3 59.7 411.2 60.7C457 61.7 503 60.3 548.8 59C594.7 57.7 640.3 56.3 686 50.8C731.7 45.3 777.3 35.7 823 31.3C868.7 27 914.3 28 937.2 28.5L960 29L960 0L937.2 0C914.3 0 868.7 0 823 0C777.3 0 731.7 0 686 0C640.3 0 594.7 0 548.8 0C503 0 457 0 411.2 0C365.3 0 319.7 0 274 0C228.3 0 182.7 0 137 0C91.3 0 45.7 0 22.8 0L0 0Z" fill="#38c724"></path></svg>
