<svg id="visual" viewBox="0 0 900 600" width="900" height="600" xmlns="http://www.w3.org/2000/svg" xmlns:xlink="http://www.w3.org/1999/xlink" version="1.1"><path d="M0 428L21.5 430C43 432 86 436 128.8 436.2C171.7 436.3 214.3 432.7 257.2 433.5C300 434.3 343 439.7 385.8 442.2C428.7 444.7 471.3 444.3 514.2 429.7C557 415 600 386 642.8 382.2C685.7 378.3 728.3 399.7 771.2 414.7C814 429.7 857 438.3 878.5 442.7L900 447L900 601L878.5 601C857 601 814 601 771.2 601C728.3 601 685.7 601 642.8 601C600 601 557 601 514.2 601C471.3 601 428.7 601 385.8 601C343 601 300 601 257.2 601C214.3 601 171.7 601 128.8 601C86 601 43 601 21.5 601L0 601Z" fill="#009473"></path><path d="M0 443L21.5 435.8C43 428.7 86 414.3 128.8 420.3C171.7 426.3 214.3 452.7 257.2 456.8C300 461 343 443 385.8 443.2C428.7 443.3 471.3 461.7 514.2 458C557 454.3 600 428.7 642.8 415.5C685.7 402.3 728.3 401.7 771.2 410.5C814 419.3 857 437.7 878.5 446.8L900 456L900 601L878.5 601C857 601 814 601 771.2 601C728.3 601 685.7 601 642.8 601C600 601 557 601 514.2 601C471.3 601 428.7 601 385.8 601C343 601 300 601 257.2 601C214.3 601 171.7 601 128.8 601C86 601 43 601 21.5 601L0 601Z" fill="#00a26b"></path><path d="M0 450L21.5 447.8C43 445.7 86 441.3 128.8 445.5C171.7 449.7 214.3 462.3 257.2 469.2C300 476 343 477 385.8 481.2C428.7 485.3 471.3 492.7 514.2 496.2C557 499.7 600 499.3 642.8 489.7C685.7 480 728.3 461 771.2 461.3C814 461.7 857 481.3 878.5 491.2L900 501L900 601L878.5 601C857 601 814 601 771.2 601C728.3 601 685.7 601 642.8 601C600 601 557 601 514.2 601C471.3 601 428.7 601 385.8 601C343 601 300 601 257.2 601C214.3 601 171.7 601 128.8 601C86 601 43 601 21.5 601L0 601Z" fill="#00af5d"></path><path d="M0 536L21.5 529C43 522 86 508 128.8 504.2C171.7 500.3 214.3 506.7 257.2 511.7C300 516.7 343 520.3 385.8 522.8C428.7 525.3 471.3 526.7 514.2 528.2C557 529.7 600 531.3 642.8 531.2C685.7 531 728.3 529 771.2 527.7C814 526.3 857 525.7 878.5 525.3L900 525L900 601L878.5 601C857 601 814 601 771.2 601C728.3 601 685.7 601 642.8 601C600 601 557 601 514.2 601C471.3 601 428.7 601 385.8 601C343 601 300 601 257.2 601C214.3 601 171.7 601 128.8 601C86 601 43 601 21.5 601L0 601Z" fill="#19bb48"></path><path d="M0 546L21.5 542.8C43 539.7 86 533.3 128.8 532C171.7 530.7 214.3 534.3 257.2 534.3C300 534.3 343 530.7 385.8 529.7C428.7 528.7 471.3 530.3 514.2 532C557 533.7 600 535.3 642.8 541.5C685.7 547.7 728.3 558.3 771.2 563C814 567.7 857 566.3 878.5 565.7L900 565L900 601L878.5 601C857 601 814 601 771.2 601C728.3 601 685.7 601 642.8 601C600 601 557 601 514.2 601C471.3 601 428.7 601 385.8 601C343 601 300 601 257.2 601C214.3 601 171.7 601 128.8 601C86 601 43 601 21.5 601L0 601Z" fill="#38c724"></path></svg>
